<svg id="visual" viewBox="0 0 900 600" width="900" height="600" xmlns="http://www.w3.org/2000/svg" xmlns:xlink="http://www.w3.org/1999/xlink" version="1.1"><rect x="0" y="0" width="900" height="600" fill="#094c59"></rect><defs><linearGradient id="grad1_0" x1="33.3%" y1="0%" x2="100%" y2="100%"><stop offset="20%" stop-color="#094c59" stop-opacity="1"></stop><stop offset="80%" stop-color="#094c59" stop-opacity="1"></stop></linearGradient></defs><defs><linearGradient id="grad2_0" x1="0%" y1="0%" x2="66.7%" y2="100%"><stop offset="20%" stop-color="#094c59" stop-opacity="1"></stop><stop offset="80%" stop-color="#094c59" stop-opacity="1"></stop></linearGradient></defs><g transform="translate(900, 0)"><path d="M0 351.5C-14.4 297.3 -28.8 243.1 -45.3 227.5C-61.8 211.9 -80.4 235 -102.9 248.5C-125.5 262.1 -152.1 266.2 -175.6 262.7C-199 259.3 -219.4 248.2 -231.9 231.9C-244.4 215.7 -249.1 194.3 -267.7 178.9C-286.4 163.5 -319.1 154 -324.8 134.5C-330.4 115 -309 85.5 -308.9 61.5C-308.9 37.4 -330.2 18.7 -351.5 0L0 0Z" fill="#fff"></path></g><g transform="translate(0, 600)"><path d="M0 -351.5C15.1 -308.1 30.3 -264.6 51.1 -257C71.9 -249.3 98.4 -277.6 114 -275.3C129.6 -273.1 134.4 -240.3 151.7 -227C169 -213.6 198.9 -219.7 206.5 -206.5C214.1 -193.3 199.4 -160.9 223.7 -149.4C247.9 -138 311 -147.6 324.8 -134.5C338.5 -121.4 302.9 -85.7 299.1 -59.5C295.4 -33.3 323.5 -16.7 351.5 0L0 0Z" fill="#fff"></path></g></svg>